<svg width="550" height="198" viewBox="0 0 550 198" fill="none" xmlns="http://www.w3.org/2000/svg">
<g clip-path="url(#clip0_758_437)">
<path d="M42.4179 173.27C32.1362 173.27 23.7734 164.906 23.7734 154.626V42.4178C23.7734 32.1361 32.1381 23.7733 42.4179 23.7733H507.582C517.864 23.7733 526.227 32.138 526.227 42.4178V154.626C526.227 164.907 517.862 173.27 507.582 173.27H42.4179Z" fill="#EDEDED"/>
<path d="M507.582 197.044H42.4178C31.0878 197.044 20.4356 192.632 12.4229 184.619C4.412 176.608 0 165.956 0 154.626V42.4178C0 31.0878 4.412 20.4356 12.4247 12.4247C20.4356 4.412 31.0878 0 42.4178 0H507.582C518.912 0 529.564 4.412 537.577 12.4247C545.588 20.4356 550.002 31.0878 550.002 42.4178V154.626C550.002 165.956 545.59 176.608 537.577 184.619C529.564 192.632 518.912 197.044 507.582 197.044ZM42.4178 4.71206C21.6266 4.71206 4.71206 21.6266 4.71206 42.4178V154.626C4.71206 175.417 21.6266 192.331 42.4178 192.331H507.582C528.373 192.331 545.288 175.417 545.288 154.626V42.4178C545.288 21.6266 528.373 4.71206 507.582 4.71206H42.4178Z" fill="#71B586"/>
<path d="M170.267 106.066C170.251 106.518 170.228 106.968 170.199 107.416C170.012 110.443 169.58 113.397 168.941 116.22C168.774 116.955 168.595 117.679 168.4 118.394C167.745 120.81 166.937 123.112 165.998 125.264C165.146 127.218 164.186 129.048 163.134 130.726C162.249 132.142 161.349 133.416 160.462 134.577C159.13 136.324 157.83 137.811 156.653 139.121C155.022 140.94 153.629 142.418 152.721 143.779C151.326 145.868 148.648 147.891 144.44 149.576C143.391 149.997 142.249 150.397 141.006 150.771C140.091 151.047 139.122 151.308 138.1 151.555C130.109 153.479 128.968 152.946 124.012 152.303C119.055 151.66 112.207 150.056 109.105 149.13C108.755 149.025 108.358 148.895 107.927 148.743C104.55 147.554 99.0788 145.055 97.3711 143.316C97.2988 143.244 97.2266 143.17 97.1544 143.094C96.6969 142.625 96.2338 142.125 95.767 141.592C95.7411 141.56 95.7133 141.529 95.6855 141.497C95.4948 141.279 95.3021 141.051 95.1132 140.819C93.8833 139.326 92.659 137.57 91.5588 135.435C91.4754 135.272 91.3884 135.109 91.2976 134.944C89.4954 131.623 86.6819 128.028 84.6778 123.205C82.8552 118.82 81.6234 112.471 81.8457 105.986C81.879 104.98 81.9494 103.973 82.0569 102.967C82.6736 97.2159 84.2054 91.9982 86.4818 87.7807C87.169 86.5064 87.9247 85.3246 88.7434 84.2448C92.2737 79.5901 95.4836 77.8268 97.1951 76.2747C98.9084 74.7225 105.541 72.7443 109.766 71.8867C113.23 71.1847 118.242 67.823 125.595 66.6653C127.212 66.4079 128.94 66.2597 130.791 66.2708C137.477 66.306 142.506 68.1434 148.068 70.9254C149.689 71.7367 150.997 72.5109 152.093 73.2518C153.351 74.1001 154.329 74.9022 155.177 75.6634C155.587 76.0302 155.964 76.3821 156.331 76.7285C156.813 77.1822 157.274 77.6212 157.752 78.0417C158.296 78.5214 158.908 79.0437 159.556 79.6383C159.867 79.9217 160.189 80.2199 160.517 80.5385C161.566 81.5554 162.679 82.7612 163.762 84.2411C164.549 85.3154 165.322 86.536 166.042 87.9363C167.389 90.5461 168.517 93.3355 169.271 96.3583C170.019 99.3404 170.401 102.56 170.267 106.066Z" fill="white"/>
<path d="M129.683 153.881C128.252 153.881 127.003 153.707 125.39 153.483C124.925 153.418 124.429 153.349 123.888 153.279C118.905 152.633 111.939 151.003 108.825 150.073C108.451 149.962 108.038 149.825 107.601 149.671C104.197 148.473 98.5548 145.922 96.6711 144.005C96.6007 143.935 96.5248 143.855 96.447 143.775C95.9617 143.275 95.482 142.757 95.0282 142.238L94.943 142.14C94.7467 141.914 94.5466 141.679 94.3521 141.441C92.9093 139.689 91.7072 137.87 90.6829 135.885C90.6032 135.727 90.5199 135.574 90.4347 135.418C89.8234 134.292 89.0844 133.119 88.3046 131.88C86.808 129.504 85.1095 126.811 83.7685 123.58C81.7366 118.694 80.6512 112.104 80.8605 105.951C80.8957 104.917 80.968 103.876 81.0772 102.86C81.7033 97.0251 83.2721 91.6481 85.6152 87.3083C86.3264 85.9895 87.1136 84.7578 87.9583 83.6446C90.6495 80.0976 93.1482 78.188 94.9726 76.7932C95.5876 76.3228 96.1173 75.9171 96.5341 75.5411C98.6623 73.613 106.236 71.5941 109.572 70.918C110.807 70.6679 112.341 70.016 114.117 69.2602C117.096 67.9952 120.802 66.4189 125.444 65.6873C127.201 65.4076 129.004 65.2668 130.798 65.2798C137.672 65.315 142.851 67.208 148.513 70.0382C150.073 70.8198 151.425 71.6015 152.649 72.4313C153.76 73.1796 154.775 73.9723 155.839 74.9244C156.274 75.3133 156.676 75.6893 157.011 76.0061L157.174 76.1598C157.596 76.558 157.996 76.934 158.406 77.2971C158.547 77.4212 158.691 77.5471 158.841 77.6768C159.26 78.0435 159.736 78.4584 160.225 78.9048C160.586 79.2345 160.908 79.5345 161.206 79.8253C162.488 81.0682 163.585 82.3203 164.561 83.6539C165.435 84.8449 166.23 86.1322 166.922 87.4806C168.428 90.3997 169.51 93.2243 170.232 96.1157C171.04 99.3459 171.386 102.706 171.257 106.103C171.238 106.581 171.216 107.044 171.186 107.481C170.999 110.493 170.569 113.508 169.906 116.438C169.738 117.185 169.553 117.929 169.356 118.654C168.697 121.087 167.871 123.445 166.906 125.659C166.037 127.652 165.05 129.534 163.974 131.251C163.133 132.593 162.242 133.877 161.249 135.177C159.875 136.979 158.528 138.517 157.389 139.782C157.135 140.065 156.887 140.339 156.644 140.608C155.37 142.019 154.27 143.238 153.544 144.327C151.932 146.744 148.993 148.819 144.809 150.493C143.725 150.929 142.543 151.34 141.293 151.716C140.341 152.001 139.346 152.27 138.331 152.514C134.071 153.538 131.695 153.881 129.683 153.881ZM130.621 67.2524C128.987 67.2524 127.35 67.3821 125.749 67.6358C121.346 68.3286 117.764 69.8511 114.886 71.0754C113.011 71.8719 111.393 72.5609 109.961 72.8499C105.378 73.7778 99.2791 75.7115 97.8566 77.0007C97.3805 77.4323 96.8193 77.862 96.1692 78.3584C94.4336 79.6846 92.0572 81.5016 89.5289 84.8356C88.7454 85.8673 88.012 87.0157 87.3489 88.2437C85.1262 92.3612 83.6352 97.4863 83.0369 103.069C82.9332 104.038 82.8646 105.03 82.8313 106.016C82.6294 111.902 83.6611 118.185 85.5893 122.823C86.8673 125.899 88.5176 128.519 89.9735 130.828C90.7718 132.095 91.5275 133.294 92.1665 134.472C92.2591 134.64 92.3499 134.811 92.4388 134.983C93.3964 136.842 94.5225 138.546 95.8765 140.191C96.0599 140.415 96.247 140.636 96.4303 140.847L96.5174 140.947C96.9434 141.434 97.399 141.927 97.864 142.406C97.9362 142.481 98.0029 142.551 98.0714 142.619C99.518 144.092 104.504 146.493 108.257 147.813C108.666 147.958 109.046 148.084 109.389 148.185C112.437 149.095 119.259 150.693 124.14 151.327C124.688 151.397 125.19 151.468 125.66 151.532C129.396 152.051 130.941 152.266 137.87 150.597C138.848 150.362 139.809 150.102 140.724 149.828C141.917 149.469 143.045 149.076 144.075 148.663C147.83 147.161 150.538 145.283 151.905 143.234C152.71 142.025 153.855 140.756 155.183 139.285C155.424 139.019 155.67 138.746 155.924 138.465C157.035 137.228 158.35 135.729 159.682 133.983C160.638 132.732 161.495 131.497 162.303 130.206C163.327 128.57 164.268 126.777 165.098 124.873C166.026 122.747 166.817 120.482 167.452 118.14C167.641 117.442 167.821 116.725 167.982 116.007C168.621 113.18 169.036 110.27 169.217 107.361C169.245 106.938 169.267 106.494 169.284 106.034C169.406 102.778 169.091 99.6923 168.317 96.5991C167.634 93.8578 166.604 91.1721 165.168 88.3882C164.522 87.1305 163.781 85.9321 162.968 84.8226C162.058 83.5798 161.032 82.4092 159.832 81.2441C159.549 80.9682 159.241 80.6811 158.893 80.3643C158.419 79.9309 157.972 79.5419 157.541 79.1641C157.391 79.0326 157.243 78.9048 157.1 78.7788C156.663 78.3936 156.252 78.0065 155.816 77.5971L155.653 77.4434C155.327 77.1359 154.937 76.771 154.518 76.3969C153.892 75.8375 152.903 74.9873 151.54 74.0686C150.386 73.287 149.106 72.5479 147.624 71.8052C142.21 69.0991 137.274 67.2895 130.782 67.2561C130.732 67.2524 130.676 67.2524 130.621 67.2524Z" fill="#71B586"/>
<path d="M131.289 85.721C129.115 86.6842 124.441 86.1489 122.765 84.7227C122.606 84.5874 122.461 84.443 122.33 84.2892C121.083 82.8297 121.172 80.6014 123.334 78.3732C125.723 75.9135 126.438 75.4837 128.185 75.5208C129.75 75.5523 131.865 76.408 133.082 78.6677C133.252 78.9826 133.402 79.3234 133.534 79.6939C134.605 82.7241 133.464 84.7578 131.289 85.721Z" fill="#71B586"/>
<path d="M152.895 89.781C151.704 90.659 149.824 91.9333 146.337 91.6407C145.105 91.5369 144.447 91.1776 144.136 90.6997C143.564 89.8292 144.157 88.5734 144.52 87.8177C145.084 86.6489 145.988 83.5631 147.437 83.0686C148.03 82.8667 149.737 83.0408 151.364 84.4133C151.486 84.5152 151.606 84.6244 151.727 84.7393C153.453 86.41 154.088 88.9031 152.895 89.781Z" fill="#71B586"/>
<path d="M150.654 132.208C149.333 133.527 147.926 133.901 147.176 133.616C146.9 133.51 146.64 133.321 146.422 133.016C146.044 132.492 145.783 131.627 145.749 130.263C145.696 128.107 145.09 126.518 148.211 125.807C148.857 125.659 150.43 125.431 151.38 126.327C151.523 126.459 151.651 126.618 151.758 126.805C152.597 128.248 151.975 130.888 150.654 132.208Z" fill="#71B586"/>
<path d="M135.257 143.927C134.496 144.342 133.92 144.663 132.797 144.409C132.016 144.233 131.449 143.651 131.082 143.168C130.921 142.955 130.797 142.762 130.71 142.631C130.428 142.203 130.536 141.241 130.897 140.558C131.258 139.876 130.884 138.954 132.969 138.86C133.897 138.819 135.479 139.271 136.09 140.527C136.187 140.717 136.257 140.928 136.3 141.16C136.62 142.897 136.018 143.512 135.257 143.927Z" fill="#71B586"/>
<path d="M129.58 128.168C128.296 129.471 126.816 129.808 124.927 129.648C124.001 129.569 123.371 128.952 122.897 128.2C122.867 128.155 122.839 128.111 122.813 128.067C122.358 127.309 122.045 126.444 121.735 125.851C121.095 124.621 120.506 122.571 121.272 121.465C122.037 120.359 123.304 119.485 125.516 119.663C125.938 119.698 126.394 119.757 126.853 119.848C128.15 120.102 129.496 120.606 130.321 121.497C130.574 121.769 130.778 122.078 130.917 122.427C131.667 124.318 130.865 126.868 129.58 128.168Z" fill="#71B586"/>
<path d="M106.797 134.673C105.914 135.716 104.643 136.211 103.562 136.131C102.478 136.052 102.117 135.596 101.489 135.516C100.891 135.44 99.5701 134.916 99.1311 134.325C99.107 134.294 99.0866 134.262 99.0681 134.231C98.7069 133.603 97.6512 132.745 98.0772 131.395C98.5069 130.045 99.4015 129.148 100.618 128.828C101.835 128.507 102.476 127.637 103.841 127.691C105.264 127.746 106.401 128.441 106.864 129.765C106.951 130.01 107.014 130.276 107.051 130.565C107.292 132.412 107.681 133.629 106.797 134.673Z" fill="#71B586"/>
<path d="M102.474 108.65C100.941 110.861 100.014 111.93 98.1233 112.502C96.3433 113.039 95.0856 112.612 94.1262 111.86C94.0669 111.813 94.0095 111.765 93.952 111.717C93.4575 111.295 93 110.641 92.661 109.815C92.3295 109.003 92.1146 108.025 92.0961 106.938C92.0609 104.745 91.8831 103.817 92.7574 102.676C93.6298 101.535 95.2708 100.626 97.1249 100.465C98.7178 100.326 100.735 100.626 102.2 101.678C102.502 101.895 102.78 102.143 103.026 102.426C103.124 102.537 103.211 102.652 103.291 102.771C104.404 104.401 103.904 106.588 102.474 108.65Z" fill="#71B586"/>
<path d="M158.437 112.039C158.408 113.877 157.706 115.342 156.883 116.044C156.063 116.746 154.972 117.179 153.386 116.701C152.294 116.372 151.584 115.842 150.827 114.938C150.486 114.532 150.136 114.049 149.739 113.475C148.454 111.621 148.067 109.648 149.276 108.259C150.486 106.87 152.612 106.475 154.222 106.614C155.776 106.747 157.15 107.511 157.884 108.468C158.078 108.722 158.21 108.963 158.298 109.215C158.545 109.911 158.458 110.689 158.437 112.039Z" fill="#71B586"/>
<path d="M107.503 82.3129C107.557 84.0132 106.551 85.1171 105.381 85.5432C104.008 86.0433 103.276 85.0968 101.939 85.3116C101.107 85.445 100.442 85.082 100.174 84.4226C100.009 84.0225 99.9924 83.5113 100.174 82.9389C100.655 81.4238 101.172 79.3012 103.384 78.8029C104.641 78.5177 106.862 79.1585 107.379 81.3886C107.453 81.7128 107.494 82.0221 107.503 82.3129Z" fill="#71B586"/>
<path d="M124.327 102.43C123.399 104.41 122.026 105.264 119.995 104.443C119.367 104.191 118.931 103.873 118.639 103.526C117.981 102.75 118.037 101.841 118.246 101.235C118.55 100.361 119.028 99.9257 119.369 99.5219C120.224 98.5088 121.849 97.3993 123.542 97.8994C124.199 98.092 124.605 98.5217 124.799 99.0885C125.107 99.9813 124.894 101.219 124.327 102.43Z" fill="#71B586"/>
<path d="M80.3697 134.879C65.3463 130.547 54.809 121.801 47.0426 108.366C44.9163 105.364 42.7714 102.986 42.0879 99.1978C40.7432 92.8465 40.884 85.3876 42.2491 79.2604C46.4536 81.396 52.2696 80.7311 55.3258 76.9952C55.7036 76.5321 56.1111 75.9857 56.7112 75.9431C59.6989 77.1544 63.0829 78.9474 66.2595 77.3434C69.7028 75.7708 71.0493 71.6607 71.9162 67.9767C75.7762 69.9993 79.4603 66.2763 81.4848 63.2535C83.9482 60.0102 86.6617 55.9427 85.33 51.7215C88.3936 50.3638 90.481 47.4262 91.5776 44.3274C91.9387 43.3124 92.2055 42.2715 92.4111 41.2157C93.026 41.2527 93.6335 41.2972 94.254 41.3602C98.4993 41.7806 102.721 42.7345 106.716 44.2459C119.363 48.9506 127.059 57.1115 130.804 68.7268C131.715 73.0314 131.582 77.799 131.352 82.1906C131.715 88.9309 133.393 95.7545 131.802 102.5C130.021 111.715 124.479 119.124 117.935 125.055C114.238 128.035 110.668 130.013 106.708 132.408C98.7068 136.542 89.0178 137.202 80.3697 134.879Z" fill="white"/>
<path d="M90.4645 137.198C87.0156 137.198 83.5242 136.746 80.1142 135.831C80.1087 135.829 80.1031 135.827 80.0976 135.826C72.4775 133.629 66.0244 130.35 60.3677 125.803C54.8703 121.384 50.2397 115.853 46.213 108.898C45.8851 108.435 45.5517 107.981 45.2294 107.542C43.4346 105.095 41.738 102.782 41.1212 99.3867C39.7894 93.0892 39.8524 85.4858 41.2879 79.0437C41.3546 78.7474 41.5546 78.4973 41.8287 78.3658C42.1047 78.2362 42.4233 78.2399 42.6956 78.3788C46.7445 80.4347 51.9586 79.5512 54.5646 76.3673L54.6295 76.2876C55.061 75.756 55.6519 75.0262 56.6428 74.9559C56.7929 74.9466 56.9447 74.9688 57.0837 75.0262C57.4208 75.1633 57.7616 75.3059 58.1061 75.4523C60.7085 76.5488 63.3998 77.6805 65.8169 76.4617C65.828 76.4562 65.841 76.4506 65.8521 76.4451C68.8749 75.0651 70.1289 71.2755 70.9568 67.7488C71.0272 67.4525 71.2291 67.2043 71.5069 67.0783C71.7848 66.9524 72.1052 66.9598 72.3738 67.1024C75.9449 68.975 79.3622 64.6501 80.6662 62.7034C80.6773 62.6867 80.6884 62.6719 80.6995 62.6552C83.2853 59.2508 85.5227 55.6057 84.3892 52.016C84.2373 51.5382 84.4707 51.0214 84.93 50.8176C87.4194 49.7137 89.5032 47.228 90.6497 43.9959C90.972 43.0902 91.2313 42.1196 91.4443 41.0249C91.5388 40.5396 91.9777 40.197 92.4704 40.2303C93.1539 40.2711 93.7689 40.3192 94.3523 40.3767C98.7828 40.8156 103.06 41.8066 107.064 43.3217C119.743 48.0393 127.816 56.2502 131.743 68.4212C131.754 68.4527 131.762 68.486 131.769 68.5194C132.717 72.9944 132.562 77.9176 132.34 82.187C132.443 84.0725 132.654 86.0099 132.86 87.8825C133.39 92.7243 133.936 97.729 132.767 102.704C131.167 110.946 126.401 118.711 118.598 125.781C118.583 125.794 118.57 125.807 118.555 125.818C115.408 128.354 112.36 130.174 109.131 132.101C108.503 132.475 107.866 132.856 107.22 133.247C107.201 133.258 107.183 133.269 107.162 133.279C102.148 135.874 96.3712 137.198 90.4645 137.198ZM80.6347 133.929C89.4013 136.281 98.7254 135.413 106.227 131.547C106.868 131.16 107.498 130.784 108.118 130.413C111.278 128.528 114.264 126.746 117.294 124.307C124.768 117.529 129.322 110.13 130.834 102.315C130.836 102.302 130.839 102.289 130.843 102.276C131.94 97.6253 131.412 92.7835 130.899 88.103C130.689 86.1859 130.473 84.2022 130.367 82.2462C130.365 82.211 130.365 82.1758 130.367 82.1425C130.584 78.0009 130.739 73.2314 129.848 68.9843C126.114 57.4505 118.433 49.6619 106.37 45.1739C102.521 43.7181 98.4142 42.766 94.1541 42.3437C93.8466 42.3122 93.5299 42.2844 93.1965 42.2604C93.0002 43.1161 92.7724 43.907 92.5056 44.6609C91.2739 48.1338 89.155 50.7973 86.4859 52.2513C87.3583 56.3762 85.006 60.2455 82.2869 63.8295C79.3196 68.2471 75.7819 70.2197 72.6016 69.3121C71.6496 72.961 70.1233 76.6562 66.6875 78.2343C63.4627 79.8513 60.2102 78.4825 57.3411 77.273C57.1133 77.1767 56.8873 77.0822 56.6614 76.9896C56.5058 77.11 56.2891 77.3749 56.1594 77.536L56.0909 77.6212C54.4924 79.5735 52.1067 80.883 49.371 81.3071C47.1983 81.6443 44.9683 81.4127 42.9679 80.657C41.8306 86.5767 41.8547 93.3392 43.0531 98.9977C43.0549 99.007 43.0568 99.0163 43.0586 99.0274C43.5921 101.984 45.0868 104.021 46.8186 106.383C47.1539 106.84 47.5021 107.314 47.8485 107.803C47.8651 107.827 47.8818 107.853 47.8966 107.879C55.7612 121.475 66.1614 129.754 80.6347 133.929Z" fill="#71B586"/>
<path d="M110.993 100.074C110.619 97.5586 112.499 92.8965 114.443 91.5741C114.629 91.4481 114.818 91.3388 115.014 91.2499C116.872 90.3812 119.143 91.1054 120.824 93.9653C122.68 97.127 122.919 97.9846 122.386 99.7739C121.908 101.376 120.426 103.315 117.752 103.927C117.379 104.014 116.985 104.071 116.566 104.103C113.139 104.341 111.369 102.587 110.993 100.074Z" fill="#71B586"/>
<path d="M100.67 121.186C100.105 119.709 99.3236 117.411 100.618 113.899C101.076 112.658 101.633 112.084 102.213 111.899C103.273 111.556 104.399 112.523 105.075 113.114C106.119 114.027 109.042 115.836 109.139 117.47C109.177 118.137 108.514 119.848 106.636 121.134C106.497 121.23 106.349 121.324 106.195 121.415C103.984 122.717 101.235 122.662 100.67 121.186Z" fill="#71B586"/>
<path d="M57.5875 106.82C56.604 105.084 56.6188 103.528 57.1245 102.836C57.3115 102.58 57.5801 102.369 57.958 102.23C58.6044 101.991 59.5694 101.967 60.9845 102.319C63.222 102.876 65.0316 102.704 64.8779 106.121C64.8464 106.831 64.6352 108.515 63.4406 109.239C63.2646 109.348 63.0645 109.433 62.8404 109.492C61.1142 109.946 58.5729 108.555 57.5875 106.82Z" fill="#71B586"/>
<path d="M49.886 87.6214C49.6748 86.7194 49.5081 86.034 50.0879 84.9505C50.4917 84.1966 51.2529 83.7762 51.8549 83.5354C52.1216 83.4298 52.355 83.3576 52.5143 83.3057C53.0348 83.1372 53.9961 83.5224 54.5962 84.0874C55.1963 84.6541 56.2539 84.53 55.7575 86.7064C55.5353 87.6733 54.6203 89.1754 53.1514 89.4477C52.9273 89.4921 52.6902 89.5051 52.4402 89.4829C50.5602 89.3199 50.0971 88.5253 49.886 87.6214Z" fill="#71B586"/>
<path d="M67.7375 86.2489C66.7614 84.556 66.8336 82.9353 67.5356 81.0349C67.8802 80.1032 68.6951 79.629 69.6046 79.3531C69.6583 79.3364 69.7139 79.3197 69.7657 79.3049C70.6752 79.0511 71.655 78.9733 72.3551 78.8233C73.8054 78.5121 76.0855 78.4899 77.0061 79.5938C77.9285 80.6978 78.4675 82.2499 77.6562 84.4782C77.5006 84.9023 77.3098 85.3561 77.0839 85.8044C76.4541 87.0676 75.5521 88.3123 74.4 88.9105C74.0462 89.0958 73.6702 89.218 73.272 89.2606C71.1141 89.494 68.7137 87.9437 67.7375 86.2489Z" fill="#71B586"/>
<path d="M95.5542 63.8648C93.7112 61.6569 92.8721 60.3974 92.8203 58.2858C92.774 56.3003 93.5704 55.1241 94.6188 54.3499C94.6836 54.3017 94.7484 54.2554 94.8151 54.2109C95.3912 53.822 96.195 53.5349 97.1415 53.4219C98.0713 53.3108 99.1401 53.3682 100.266 53.6571C102.535 54.2443 103.543 54.3239 104.471 55.5483C105.399 56.7726 105.869 58.7211 105.508 60.6771C105.197 62.3589 104.315 64.3519 102.817 65.5632C102.507 65.8133 102.172 66.0282 101.811 66.2023C101.668 66.2708 101.526 66.3301 101.379 66.3782C99.3827 67.0598 97.273 65.9244 95.5542 63.8648Z" fill="#71B586"/>
<path d="M76.158 120.571C74.2724 120.019 72.9629 118.878 72.4739 117.831C71.9831 116.785 71.8478 115.538 72.7888 114.041C73.4389 113.01 74.1854 112.428 75.3337 111.906C75.8487 111.671 76.4451 111.447 77.1508 111.2C79.4253 110.402 81.5683 110.563 82.6574 112.206C83.7465 113.847 83.5484 116.149 82.9464 117.77C82.3666 119.333 81.1905 120.534 79.9958 121.015C79.6791 121.143 79.3938 121.211 79.1086 121.23C78.3214 121.286 77.5453 120.976 76.158 120.571Z" fill="#71B586"/>
<path d="M121.265 76.5303C119.498 76.1024 118.646 74.754 118.541 73.4241C118.415 71.8663 119.598 71.3829 119.758 69.9437C119.858 69.0491 120.421 68.4657 121.174 68.3768C121.634 68.3212 122.165 68.449 122.703 68.7991C124.127 69.727 126.166 70.8624 126.053 73.2815C125.988 74.6595 124.697 76.7636 122.254 76.6636C121.897 76.6488 121.567 76.6025 121.265 76.5303Z" fill="#71B586"/>
<path d="M95.7545 88.1511C93.9782 86.6323 93.4874 84.9745 94.9099 83.113C95.3488 82.5388 95.8008 82.1795 96.2398 81.9776C97.2252 81.5201 98.1476 81.8368 98.7125 82.224C99.5275 82.7852 99.8386 83.402 100.157 83.8687C100.959 85.0393 101.639 87.0268 100.644 88.6308C100.259 89.2532 99.7016 89.5495 99.0607 89.5903C98.055 89.6495 96.8399 89.0791 95.7545 88.1511Z" fill="#71B586"/>
<path d="M263.771 77.5174V83.0725H257.246V77.1656C257.246 71.6104 255.043 68.2611 250.018 68.2611C245.08 68.2611 242.789 71.6104 242.789 77.1656V109.786C242.789 115.341 245.08 118.69 250.018 118.69C255.043 118.69 257.246 115.341 257.246 109.786V101.763H263.771V109.434C263.771 118.781 259.364 124.951 249.842 124.951C240.407 124.951 236 118.781 236 109.434V77.5174C236 68.1708 240.407 62 249.842 62C259.364 62.0023 263.771 68.1732 263.771 77.5174Z" fill="#71B586"/>
<path d="M269.499 77.5174C269.499 68.0852 274.172 62 283.604 62C293.127 62 297.798 68.0829 297.798 77.5174V109.432C297.798 118.778 293.125 124.949 283.604 124.949C274.172 124.949 269.499 118.778 269.499 109.432V77.5174ZM276.288 109.786C276.288 115.429 278.667 118.69 283.604 118.69C288.63 118.69 290.921 115.429 290.921 109.786V77.1656C290.921 71.6104 288.63 68.2611 283.604 68.2611C278.667 68.2611 276.288 71.6104 276.288 77.1656V109.786Z" fill="#71B586"/>
<path d="M303.796 77.5174C303.796 68.0852 308.469 62 317.901 62C327.424 62 332.095 68.0829 332.095 77.5174V109.432C332.095 118.778 327.421 124.949 317.901 124.949C308.469 124.949 303.796 118.778 303.796 109.432V77.5174ZM310.585 109.786C310.585 115.429 312.964 118.69 317.901 118.69C322.926 118.69 325.22 115.429 325.22 109.786V77.1656C325.22 71.6104 322.929 68.2611 317.901 68.2611C312.964 68.2611 310.585 71.6104 310.585 77.1656V109.786Z" fill="#71B586"/>
<path d="M349.113 97.5319L345.497 103.615V124.333H338.621V62.6201H345.497V92.4189L361.897 62.6201H368.861L353.256 90.7431L369.389 124.333H362.336L349.113 97.5319Z" fill="#71B586"/>
<path d="M381.557 62.6201V124.333H374.681V62.6201H381.557Z" fill="#71B586"/>
<path d="M410.561 89.9491V96.12H395.485V118.072H414V124.331H388.608V62.6201H414V68.8789H395.485V89.9491H410.561Z" fill="#71B586"/>
</g>
<defs>
<clipPath id="clip0_758_437">
<rect width="550" height="197.044" fill="white"/>
</clipPath>
</defs>
</svg>
