<svg width="808" height="647" viewBox="0 0 808 647" fill="none" xmlns="http://www.w3.org/2000/svg">
<path fill-rule="evenodd" clip-rule="evenodd" d="M396.055 470.169C512.575 470.169 607.03 482.269 607.03 497.19C607.03 512.111 512.575 524.21 396.055 524.21C279.534 524.21 185.079 512.111 185.079 497.19C185.072 482.269 279.534 470.169 396.055 470.169Z" fill="#ECF5FB"/>
<path fill-rule="evenodd" clip-rule="evenodd" d="M259.099 372.67L270.613 368.26C267.199 365.984 264.485 363.176 262.29 359.978L262.735 359.809C267.091 338.397 255.415 296.348 250.864 321.059L250.891 321.22C250.339 318.265 249.746 315.342 249.052 312.487C246.756 303.081 242.009 295.317 236.421 289.345C234.057 287.069 231.276 287.796 231.229 289.877C219.015 267.084 187.382 270.343 215.13 299.108C196.465 297.943 225.782 329.226 227.284 331.011C213.965 322.432 222.362 354.214 248.723 365.176C248.494 364.987 248.271 364.799 248.042 364.61C251.349 367.398 255.032 370.084 259.099 372.67Z" fill="#71B586"/>
<path d="M287.702 424.173C263.758 459.961 242.414 449.463 218.773 437.815C208.141 432.576 197.004 427.102 185.066 425.863L182.298 425.466L183.914 423.028C186.042 420.476 188.156 418.113 190.257 415.965C203.771 402.121 217.945 395.038 232.765 394.728C247.544 394.418 262.876 400.862 278.726 414.06C281.655 416.49 284.571 419.13 287.473 421.958L286.261 423.197L286.254 423.203L287.702 424.173Z" fill="#71B586"/>
<path d="M279.716 402.236C241.451 421.978 227.849 402.465 212.787 380.837C206.013 371.108 198.916 360.934 189.065 354.072L186.83 352.389L189.429 351.036C192.519 349.83 195.516 348.787 198.398 347.918C216.921 342.336 232.751 342.989 245.874 349.891C258.957 356.766 269.259 369.822 276.754 389.039C278.141 392.58 279.42 396.297 280.585 400.182L278.928 400.681H278.922L279.716 402.236Z" fill="#87C7C4"/>
<path d="M497.277 424.173C521.221 459.961 542.565 449.463 566.206 437.815C576.838 432.576 587.975 427.102 599.913 425.863L602.68 425.466L601.064 423.028C598.937 420.476 596.822 418.113 594.722 415.965C581.208 402.121 567.034 395.038 552.214 394.728C537.434 394.418 522.103 400.862 506.252 414.06C503.323 416.49 500.408 419.13 497.506 421.958L498.718 423.197L498.724 423.203L497.277 424.173Z" fill="#71B586"/>
<path d="M505.263 402.236C543.528 421.978 557.13 402.465 572.192 380.837C578.966 371.108 586.063 360.934 595.914 354.072L598.149 352.389L595.55 351.036C592.459 349.83 589.463 348.787 586.581 347.918C568.058 342.336 552.228 342.989 539.104 349.891C526.022 356.766 515.72 369.822 508.225 389.039C506.838 392.58 505.559 396.304 504.394 400.182L506.05 400.681H506.057L505.263 402.236Z" fill="#87C7C4"/>
<path d="M284.833 272.882H509.235C516.366 272.882 522.85 275.797 527.543 280.491C532.236 285.184 535.152 291.668 535.152 298.805V436.556C535.152 443.693 532.236 450.17 527.543 454.87C522.85 459.563 516.366 462.479 509.235 462.479H284.833C277.696 462.479 271.219 459.563 266.519 454.87C261.826 450.177 258.91 443.693 258.91 436.556V298.805C258.91 291.668 261.826 285.19 266.519 280.491C271.219 275.797 277.696 272.882 284.833 272.882Z" fill="#EAEEF9"/>
<path d="M279.312 268.222H514.75C522.237 268.222 529.038 271.279 533.96 276.208C538.889 281.137 541.946 287.938 541.946 295.418V439.943V467.139H514.75H505.39H439.767H354.295H287.143H279.312H252.116V439.943V295.418C252.116 287.931 255.173 281.13 260.102 276.208C265.031 271.279 271.825 268.222 279.312 268.222ZM529.516 439.943V414.154V295.418C529.516 291.365 527.853 287.675 525.173 284.995C522.493 282.315 518.803 280.652 514.75 280.652H279.312C275.259 280.652 271.569 282.315 268.889 284.995C266.209 287.675 264.546 291.365 264.546 295.418V414.154V439.943V454.864H529.509V439.943H529.516Z" fill="#71B586"/>
<path fill-rule="evenodd" clip-rule="evenodd" d="M541.946 467.138H252.116H241.848C245.39 477.972 252.736 483.716 263.879 484.362H538.128C549.272 483.716 556.618 477.979 560.159 467.138H541.946Z" fill="#71B586"/>
<path fill-rule="evenodd" clip-rule="evenodd" d="M252.116 467.139H541.946V462.95H252.116V467.139Z" fill="#308A86"/>
<path d="M585.484 308.259C577.902 304.98 574.421 296.172 577.7 288.591C580.979 281.022 589.78 277.534 597.361 280.814C604.93 284.093 608.418 292.893 605.138 300.468C601.859 308.05 593.052 311.538 585.484 308.259ZM624.982 299.667C625.46 296.583 625.487 293.499 625.123 290.489C634.913 286.604 628.57 270.559 618.767 274.43C616.969 271.979 614.834 269.751 612.384 267.832C616.565 258.169 600.728 251.315 596.547 260.977C593.463 260.499 590.379 260.472 587.362 260.836C583.477 251.039 567.439 257.388 571.303 267.192C568.853 268.983 566.631 271.124 564.705 273.575C555.042 269.394 548.188 285.231 557.85 289.412C557.379 292.496 557.345 295.58 557.709 298.596C547.912 302.481 554.261 318.52 564.065 314.655C565.863 317.1 567.997 319.328 570.448 321.254C566.267 330.923 582.104 337.778 586.285 328.109C589.369 328.58 592.453 328.614 595.469 328.25C599.355 338.04 615.393 331.691 611.528 321.894C613.979 320.096 616.208 317.961 618.127 315.504C627.789 319.685 634.644 303.848 624.982 299.667Z" fill="#71B586"/>
<path d="M377.006 147.507C399.165 147.372 417.238 165.229 417.372 187.395C417.507 209.555 399.65 227.627 377.491 227.762C355.331 227.896 337.259 210.04 337.125 187.873C336.99 165.707 354.847 147.635 377.006 147.507Z" fill="#71B586"/>
<path fill-rule="evenodd" clip-rule="evenodd" d="M351.487 187.631C364.199 185.658 366.718 186.109 379.908 186.587C379.908 186.937 379.908 187.281 379.908 187.631C379.908 187.981 379.908 188.325 379.908 188.675C366.718 189.153 364.199 189.604 351.487 187.631Z" fill="#FEFEFE"/>
<path fill-rule="evenodd" clip-rule="evenodd" d="M377.229 150.106C380.016 168.084 379.383 171.639 378.703 190.291C378.212 190.291 377.72 190.291 377.229 190.291C376.737 190.291 376.245 190.291 375.754 190.291C375.074 171.633 374.441 168.084 377.229 150.106Z" fill="#FEFEFE"/>
<path d="M380.945 187.631C380.945 189.671 379.296 191.321 377.255 191.321C375.215 191.321 373.565 189.665 373.565 187.631C373.565 185.591 375.222 183.941 377.255 183.941C379.289 183.934 380.945 185.591 380.945 187.631Z" fill="white"/>
<path fill-rule="evenodd" clip-rule="evenodd" d="M239.848 202.983L254.816 223.001L279.279 217.844C276.525 206.687 266.445 198.418 254.439 198.418C249.012 198.418 243.982 200.108 239.848 202.983Z" fill="#87C7C4"/>
<path fill-rule="evenodd" clip-rule="evenodd" d="M218.806 224.005C218.806 238.353 227.284 250.716 239.505 256.365L241.646 251.396L243.484 247.134L253.402 224.119L238.407 204.06L235.626 200.344L232.388 196.007C224.112 202.545 218.806 212.652 218.806 224.005Z" fill="#87C7C4"/>
<path fill-rule="evenodd" clip-rule="evenodd" d="M255.086 224.792L245.147 247.854L243.309 252.116C246.75 253.483 250.507 254.23 254.433 254.23C271.124 254.23 284.658 240.696 284.658 224.004C284.658 222.18 284.497 220.395 284.187 218.658L279.649 219.614L255.086 224.792Z" fill="#71B586"/>
<path fill-rule="evenodd" clip-rule="evenodd" d="M471.501 184.655H516.702V229.863H471.501V184.655Z" fill="#87C7C4"/>
<path fill-rule="evenodd" clip-rule="evenodd" d="M459.396 192.324H504.596V237.525H459.396V192.324Z" fill="#71B586"/>
<path fill-rule="evenodd" clip-rule="evenodd" d="M357.991 230.812L359.345 236.522L360.18 240.05L363.701 240.885L369.418 242.238L363.701 243.592L360.18 244.42L359.345 247.948L357.991 253.658L356.638 247.948L355.803 244.42L352.282 243.592L346.565 242.238L352.282 240.885L355.803 240.05L356.638 236.522L357.991 230.812Z" fill="#71B586"/>
<path fill-rule="evenodd" clip-rule="evenodd" d="M517.214 244.851L517.968 248.042L518.433 250.015L520.406 250.48L523.597 251.234L520.406 251.995L518.433 252.459L517.968 254.432L517.214 257.624L516.453 254.432L515.989 252.459L514.016 251.995L510.824 251.234L514.016 250.48L515.989 250.015L516.453 248.042L517.214 244.851Z" fill="#71B586"/>
<path fill-rule="evenodd" clip-rule="evenodd" d="M556.874 327.482L557.628 330.681L558.099 332.647L560.065 333.118L563.264 333.872L560.065 334.627L558.099 335.098L557.628 337.064L556.874 340.262L556.12 337.064L555.648 335.098L553.682 334.627L550.484 333.872L553.682 333.118L555.648 332.647L556.12 330.681L556.874 327.482Z" fill="#71B586"/>
<path fill-rule="evenodd" clip-rule="evenodd" d="M317.685 244.575C320.372 244.575 322.554 246.75 322.554 249.443C322.554 252.136 320.379 254.311 317.685 254.311C314.999 254.311 312.817 252.136 312.817 249.443C312.817 246.75 314.999 244.575 317.685 244.575Z" fill="#71B586"/>
<path fill-rule="evenodd" clip-rule="evenodd" d="M428.119 230.866C430.805 230.866 432.987 233.041 432.987 235.734C432.987 238.427 430.812 240.602 428.119 240.602C425.432 240.602 423.25 238.427 423.25 235.734C423.25 233.041 425.432 230.866 428.119 230.866Z" fill="#71B586"/>
<path fill-rule="evenodd" clip-rule="evenodd" d="M436.462 185.113C437.512 185.113 438.367 185.968 438.367 187.018C438.367 188.069 437.512 188.924 436.462 188.924C435.411 188.924 434.556 188.069 434.556 187.018C434.556 185.968 435.411 185.113 436.462 185.113Z" fill="#71B586"/>
<path fill-rule="evenodd" clip-rule="evenodd" d="M540.606 248.238C541.656 248.238 542.511 249.093 542.511 250.143C542.511 251.194 541.656 252.049 540.606 252.049C539.555 252.049 538.7 251.194 538.7 250.143C538.7 249.093 539.555 248.238 540.606 248.238Z" fill="#71B586"/>
<path fill-rule="evenodd" clip-rule="evenodd" d="M596.142 389.55C597.193 389.55 598.048 390.405 598.048 391.456C598.048 392.506 597.193 393.361 596.142 393.361C595.092 393.361 594.237 392.506 594.237 391.456C594.237 390.405 595.092 389.55 596.142 389.55Z" fill="#71B586"/>
<path fill-rule="evenodd" clip-rule="evenodd" d="M179.888 388.789C180.938 388.789 181.793 389.644 181.793 390.695C181.793 391.745 180.938 392.6 179.888 392.6C178.837 392.6 177.982 391.745 177.982 390.695C177.982 389.644 178.837 388.789 179.888 388.789Z" fill="#71B586"/>
<path fill-rule="evenodd" clip-rule="evenodd" d="M171.316 352.059L172.07 355.251L172.542 357.224L174.515 357.688L177.706 358.449L174.515 359.203L172.542 359.668L172.07 361.641L171.316 364.832L170.562 361.641L170.097 359.668L168.125 359.203L164.926 358.449L168.125 357.688L170.097 357.224L170.562 355.251L171.316 352.059Z" fill="#71B586"/>
<path fill-rule="evenodd" clip-rule="evenodd" d="M305.619 186.271L306.38 189.469L306.845 191.435L308.818 191.907L312.009 192.661L308.818 193.415L306.845 193.886L306.38 195.853L305.619 199.051L304.865 195.853L304.401 193.886L302.428 193.415L299.236 192.661L302.428 191.907L304.401 191.435L304.865 189.469L305.619 186.271Z" fill="#71B586"/>
<path fill-rule="evenodd" clip-rule="evenodd" d="M401.266 306.636H517.322V308.77H401.266V306.636ZM517.322 348.753H401.273V346.619H517.322V348.753ZM517.322 344.942H401.273V342.807H517.322V344.942ZM401.266 422.779H517.322V424.914H401.266V422.779ZM401.266 430.401H517.322V432.536H401.266V430.401ZM401.266 426.59H517.322V428.725H401.266V426.59ZM517.322 408.727H401.273V406.592H517.322V408.727ZM517.322 392.547H401.273V390.412H517.322V392.547ZM517.322 372.555H401.273V370.421H517.322V372.555ZM517.322 328.762H401.273V326.627H517.322V328.762ZM517.322 324.951H401.273V322.816H517.322V324.951ZM401.266 402.788H517.322V404.922H401.266V402.788ZM401.266 410.403H517.322V412.538H401.266V410.403ZM517.322 388.736H401.273V386.601H517.322V388.736ZM517.322 364.933H401.273V362.799H517.322V364.933ZM517.322 352.564H401.273V350.43H517.322V352.564ZM401.266 302.825H517.322V304.959H401.266V302.825ZM401.266 382.797H517.322V384.931H401.266V382.797ZM401.266 366.61H517.322V368.744H401.266V366.61ZM401.266 330.438H517.322V332.573H401.266V330.438ZM401.266 310.447H517.322V312.582H401.266V310.447Z" fill="#B9DADC"/>
<path fill-rule="evenodd" clip-rule="evenodd" d="M471.024 339.636C471.004 338.889 471.091 338.087 471.286 337.232C471.616 335.805 472.431 335.448 472.586 337.347C472.741 339.232 473.798 340.357 474.31 341.037L474.067 341.09L471.024 339.636Z" fill="#FACAB9"/>
<path fill-rule="evenodd" clip-rule="evenodd" d="M493.762 364.853C493.816 364.913 493.877 364.981 493.931 365.041C494.079 364.906 494.207 364.725 494.308 364.489C494.463 364.139 494.409 363.957 494.16 363.944L494.126 363.937L493.843 364.577C493.789 364.671 493.769 364.765 493.762 364.853ZM498.038 367.007H498.065L498.051 367.001L498.038 367.007ZM503.068 365.378L503.202 365.297L503.021 364.711L502.92 364.812C502.899 364.853 502.92 365.034 502.96 365.358L503.068 365.378ZM503.431 365.162L503.654 365.028L503.64 365.021L503.431 365.162ZM505.081 364.105L505.364 363.917C505.371 363.829 505.391 363.748 505.424 363.674L505.182 363.641C505.061 363.802 505.027 363.95 505.068 364.078L505.081 364.105ZM506.764 362.927L506.865 362.86L506.919 362.785L506.657 362.631L506.764 362.927ZM509.842 360.712L510.138 360.51C510.138 360.496 510.131 360.483 510.131 360.462L509.875 360.543C509.862 360.604 509.848 360.658 509.842 360.712ZM510.609 360.193L510.71 359.85C510.454 359.897 510.326 359.924 510.326 359.924L510.252 359.978L510.272 360.038C510.293 360.072 510.4 360.126 510.609 360.193ZM512.266 357.547L512.245 356.672L512.171 356.658L512.205 356.82L511.929 357.015C512.05 357.385 512.104 357.567 512.091 357.56C512.138 357.587 512.198 357.581 512.266 357.547ZM512.178 353.763V353.648C512.171 353.695 512.171 353.736 512.178 353.763ZM512.124 351.339L512.117 351.17L511.989 350.834L511.734 351.002L511.841 351.541L512.124 351.339ZM511.431 350.309L511.397 350.356L511.464 350.309H511.431ZM505.088 358.045L505.007 358.119L504.953 358.193L505.115 358.288L505.088 358.045ZM503.741 359.163C503.593 359.271 503.445 359.378 503.297 359.479L503.33 359.5C503.344 359.506 503.357 359.513 503.371 359.52L503.317 359.513L503.431 359.749L503.519 359.547H503.492C503.6 359.54 503.707 359.459 503.808 359.311L503.862 359.237L503.741 359.163ZM501.492 360.537C501.27 360.644 501.048 360.739 500.826 360.826L500.92 361.035L501.492 360.537ZM500.011 361.109C499.89 361.143 499.768 361.176 499.647 361.21L499.573 361.371L499.876 361.425L500.011 361.109ZM493.224 359.856C493.116 359.796 493.008 359.729 492.901 359.661C492.887 359.681 492.88 359.708 492.867 359.729L492.779 359.931C492.779 359.931 492.786 359.957 492.793 360.018C492.799 360.079 492.813 360.166 492.833 360.287C492.874 360.409 492.954 360.476 493.062 360.496L493.096 360.503C493.143 360.341 493.183 360.159 493.21 359.964L493.224 359.856ZM490.019 357.709L489.998 357.695C489.689 357.709 489.453 357.749 489.285 357.81C489.594 357.796 489.844 357.762 490.019 357.709ZM503.411 364.24C503.788 364.078 504.058 363.822 504.212 363.472L504.233 363.264C504.044 363.317 503.876 363.418 503.741 363.567C503.606 363.715 503.512 363.876 503.465 364.038L503.411 364.24ZM505.593 361.722L505.721 361.439L505.855 361.459L506.057 361.021L505.694 360.954L505.505 361.358L505.472 361.351L505.33 361.674L505.593 361.722ZM502.327 363.142C502.496 363.088 502.61 362.987 502.664 362.853C502.738 362.691 502.724 362.563 502.623 362.456L502.3 362.705L502.267 362.785C502.26 362.819 502.28 362.934 502.327 363.142ZM502.529 361.796L502.455 361.479L501.91 361.903L501.991 362.132L502.529 361.796ZM499.398 363.156C499.533 363.068 499.647 362.947 499.748 362.792L500.59 362.839L500.725 362.557C500.651 362.496 500.55 362.476 500.428 362.489C500.307 362.503 500.172 362.536 500.024 362.583C499.957 362.61 499.89 362.631 499.829 362.658C499.856 362.61 499.876 362.557 499.903 362.509C500.058 362.159 500.004 361.977 499.755 361.964L499.721 361.957L499.439 362.597C499.412 362.658 499.391 362.711 499.378 362.765H499.331L499.338 362.799C499.344 362.799 499.358 362.799 499.364 362.806C499.338 362.934 499.351 363.055 499.398 363.156ZM501.56 361.324L501.674 361.237L501.728 361.257L501.849 361.223C501.869 361.21 501.964 361.075 502.118 360.819L501.795 360.59C501.661 360.833 501.573 360.967 501.526 361.001L501.445 361.015L501.425 361.102C501.432 361.122 501.459 361.149 501.506 361.176L501.56 361.324ZM497.701 362.557L497.755 362.435C497.769 362.408 497.762 362.375 497.748 362.328C497.735 362.28 497.722 362.213 497.715 362.126L497.425 362.294C497.546 362.462 497.614 362.543 497.634 362.55L497.701 362.557ZM496.18 362.684L496.341 362.321L496.079 362.274L495.924 362.637L496.18 362.684ZM510.522 353.042C510.279 353.002 510.077 353.164 509.916 353.534C509.72 353.978 509.754 354.342 510.023 354.625C510.239 354.503 510.4 354.328 510.495 354.113L510.784 353.446C510.636 353.184 510.549 353.049 510.522 353.042ZM505.155 358.274L505.411 358.113L505.209 358.476L505.155 358.274ZM504.926 360.826C504.987 360.84 505.081 360.819 505.209 360.765C505.337 360.712 505.472 360.658 505.613 360.611C505.754 360.557 505.889 360.53 506.017 360.516C506.145 360.503 506.239 360.53 506.313 360.584L506.179 360.866L504.919 360.792L504.926 360.826ZM509.882 352.692L510.03 352.598C510.198 352.49 510.326 352.49 510.414 352.591L510.333 352.76L510.373 352.827L510.299 352.847L510.286 352.874L510.225 352.861L509.943 352.921L509.99 352.82L509.747 352.78L509.882 352.692ZM507.034 359.022L507.115 359.008C507.162 358.974 507.256 358.84 507.384 358.597L507.707 358.826C507.552 359.082 507.458 359.217 507.438 359.23L507.317 359.264C507.128 359.197 507.027 359.143 507.014 359.096L507.034 359.022ZM505.788 362.839C505.916 362.597 506.01 362.462 506.057 362.429C506.226 362.321 506.34 362.368 506.394 362.57C506.428 362.684 506.374 362.819 506.253 362.974L505.788 362.839ZM511.181 352.739C511.296 352.329 511.511 352.019 511.828 351.824L512.03 351.776C512.003 351.978 511.922 352.16 511.794 352.315C511.747 352.376 511.7 352.43 511.646 352.477L511.673 352.537L511.094 352.955L511.195 352.733L511.181 352.739ZM498.28 364.752L498.186 364.449L498.26 364.388L498.2 364.354L498.408 364.051L498.624 364.179L498.563 364.267L498.651 364.536L498.28 364.752ZM495.102 364.502C495.021 364.678 494.887 364.745 494.685 364.711C494.402 364.657 494.328 364.476 494.469 364.159L494.564 364.065L495.25 364.186L495.102 364.502ZM492.766 361.25L492.55 361.21L492.88 360.988L492.766 361.25ZM510.064 358.604L510.219 358.261L510.367 358.288C510.353 358.267 510.34 358.24 510.326 358.207C510.266 358.038 510.286 357.863 510.4 357.675C510.575 357.661 510.69 357.722 510.744 357.87L510.811 358.059L510.67 358.402C510.629 358.409 510.589 358.402 510.549 358.402L510.36 358.826L509.996 358.766L509.929 358.86L510.057 358.436L510.064 358.604ZM510.178 354.874C510.158 354.867 510.023 354.934 509.774 355.062L509.835 355.332C510.064 355.143 510.185 355.015 510.212 354.961L510.246 354.881L510.178 354.874ZM495.291 362.449C495.324 362.482 495.324 362.557 495.304 362.671C495.277 362.779 495.244 362.907 495.197 363.041C495.149 363.176 495.122 363.297 495.116 363.398C495.109 363.499 495.129 363.567 495.183 363.607L495.439 363.432C495.419 363.317 495.405 363.176 495.392 363.014C495.372 362.846 495.345 362.664 495.291 362.449ZM496.941 362.435C496.765 362.402 496.624 362.509 496.516 362.752C496.442 362.913 496.462 363.035 496.57 363.109L497.109 362.772C497.042 362.557 496.988 362.442 496.941 362.435ZM496.792 364.314L496.994 364.348L496.887 364.112L496.792 364.314ZM498.981 365.815L498.839 366.139L499.102 366.186L499.243 365.863L498.981 365.815ZM511.357 358.678L511.309 358.651C511.309 358.651 511.202 358.665 510.986 358.692L510.973 358.954C511.188 358.84 511.303 358.766 511.316 358.745L511.357 358.678ZM508.845 359.809L508.656 359.702L508.481 359.964L508.67 360.072L508.845 359.809ZM502.886 363.62C502.893 363.836 502.913 363.95 502.953 363.971L503.034 363.964L503.155 363.513L502.886 363.62ZM503.344 361.277L503.559 361.405L503.768 361.109L503.546 360.981L503.344 361.277ZM505.317 360.072C505.249 360.247 505.297 360.368 505.438 360.456C505.586 360.543 505.734 360.523 505.896 360.402L505.862 360.119L505.754 360.058C505.586 359.964 505.438 359.971 505.317 360.072ZM506.556 359.271L506.589 359.291L506.266 359.385L506.111 359.715L506.677 359.345L506.771 359.399L506.973 359.096L506.751 358.968L506.556 359.271ZM493.022 361.028L493.426 360.9L493.412 360.462L493.015 360.664L493.022 361.028ZM491.614 360.254C491.614 360.254 491.581 360.395 491.52 360.671L491.837 360.543C491.816 360.429 491.803 360.348 491.789 360.308C491.783 360.267 491.763 360.24 491.749 360.234L491.668 360.186L491.614 360.254ZM500.415 362.193L500.543 362.004L500.273 362.112L500.415 362.193ZM497.823 366.219C498.2 366.058 498.469 365.802 498.624 365.452L498.644 365.243C498.455 365.297 498.287 365.398 498.152 365.546C498.018 365.694 497.924 365.856 497.876 366.017L497.823 366.219ZM500.004 363.694L500.146 363.371L499.957 363.338L500.186 363.163L500.085 362.846L499.688 363.068L499.809 363.452L499.836 363.432L499.742 363.647L500.004 363.694ZM496.732 365.122C496.9 365.061 497.015 364.967 497.068 364.832C497.142 364.671 497.129 364.543 497.028 364.435L496.705 364.684L496.671 364.765C496.664 364.792 496.685 364.913 496.732 365.122ZM496.941 363.769L496.866 363.452L496.328 363.876L496.402 364.105L496.941 363.769ZM495.964 363.304C496.18 363.142 496.294 363.048 496.308 363.014L496.341 362.934L495.89 363.068L495.964 363.304ZM497.93 361.52L497.728 361.486L497.843 361.722L497.93 361.52ZM494.281 363.398L494.442 363.035L494.139 362.981L493.978 363.344L494.281 363.398ZM495.096 362.2C495.244 362.139 495.331 362.065 495.365 361.984C495.412 361.876 495.419 361.722 495.392 361.513C495.365 361.304 495.351 361.163 495.372 361.075L495.116 361.244C495.069 361.291 495.042 361.331 495.028 361.358C495.015 361.385 495.001 361.412 494.995 361.439C494.941 361.58 494.974 361.829 495.096 362.2ZM510.757 357.163L510.535 357.661L510.899 357.722L511.121 357.224L510.757 357.163ZM500.199 364.819C500.28 364.664 500.348 364.556 500.395 364.489C500.408 364.408 500.455 364.287 500.523 364.132C500.657 363.836 501.102 363.304 501.856 362.523L502.078 363.223C501.95 363.358 501.815 363.506 501.681 363.661C501.546 363.816 501.405 363.957 501.263 364.092C501.115 364.226 500.967 364.334 500.812 364.428L500.772 364.455C500.785 364.482 500.799 364.516 500.812 364.556C500.846 364.671 500.799 364.805 500.664 364.96L500.199 364.819ZM511.464 355.17L511.545 355.392L511.68 355.022L511.464 355.17ZM502.778 362.193L502.684 361.937L502.394 362.139L502.489 362.395L502.778 362.193ZM510.953 351.386C511 351.595 511.013 351.716 511 351.743L510.959 351.824L510.69 351.554L510.953 351.386ZM511.134 353.547L510.932 353.514L511.222 353.352L511.134 353.547ZM497.856 362.449L498.233 362.159L498.348 362.543L497.951 362.765L497.856 362.449ZM499.762 361.836L499.795 361.661C499.829 361.587 499.991 361.459 500.273 361.27L500.374 361.587C500.092 361.775 499.903 361.863 499.809 361.843L499.762 361.836ZM503.862 362.893C503.707 362.227 503.808 361.587 504.159 360.974L504.334 360.705C504.327 360.786 504.327 360.893 504.327 361.035C504.327 361.176 504.327 361.331 504.327 361.513C504.327 361.688 504.327 361.856 504.334 362.018C504.34 362.179 504.32 362.314 504.273 362.422C504.186 362.61 504.051 362.765 503.862 362.893Z" fill="#008BB3"/>
<path fill-rule="evenodd" clip-rule="evenodd" d="M292.711 387.665H381.033V441.687H292.711V387.665Z" fill="#71B586"/>
<path fill-rule="evenodd" clip-rule="evenodd" d="M301.283 393.988H338.586V398.916H301.283V393.988ZM301.283 430.428H372.455V435.357H301.283V430.428ZM301.283 421.318H372.455V426.247H301.283V421.318ZM301.283 412.208H372.455V417.137H301.283V412.208ZM301.283 403.098H372.455V408.027H301.283V403.098Z" fill="#FEFEFE"/>
<path fill-rule="evenodd" clip-rule="evenodd" d="M292.711 310.609H381.033V364.637H292.711V310.609Z" fill="#71B586"/>
<path fill-rule="evenodd" clip-rule="evenodd" d="M301.283 316.938H338.586V321.867H301.283V316.938ZM301.283 353.379H372.455V358.308H301.283V353.379ZM301.283 344.269H372.455V349.197H301.283V344.269ZM301.283 335.158H372.455V340.087H301.283V335.158ZM301.283 326.048H372.455V330.977H301.283V326.048Z" fill="#FEFEFE"/>
<path fill-rule="evenodd" clip-rule="evenodd" d="M292.711 233.559H381.033V287.581H292.711V233.559Z" fill="#71B586"/>
<path fill-rule="evenodd" clip-rule="evenodd" d="M301.283 239.882H338.586V244.811H301.283V239.882ZM301.283 276.329H372.455V281.258H301.283V276.329ZM301.283 267.219H372.455V272.148H301.283V267.219ZM301.283 258.109H372.455V263.038H301.283V258.109ZM301.283 248.992H372.455V253.921H301.283V248.992Z" fill="#FEFEFE"/>
</svg>
